# xmcd
# 
# Track frame offsets:
#     150
#     13106
#     26824
#     39620
#     58717
#     76008
#     90950
#     108093
#     123435
#     135359
#     150670
#     162631
#     183692
#     197963
# 
# Disc length: 3302
# 
# Revision: 3
# Processed by: cddbd v1.5.2PL0 Copyright (c) Steve Scherf et al.
# Submitted via: fre:ac v1.0.17
# 
DISCID=b10ce40e
DTITLE=Kalles Kaviar - Early Bird
DYEAR=2004
DGENRE=Ska
TTITLE0=She's A Scorcher
TTITLE1=It's Gone
TTITLE2=Must Catch A Train
TTITLE3=Fooled And Punished
TTITLE4=Think Twice
TTITLE5=Flying On Cloud Nine
TTITLE6=Cleopatra
TTITLE7=A Thing For The Past
TTITLE8=Try Me Best
TTITLE9=Cape Horn
TTITLE10=Contoneando
TTITLE11=Revolution
TTITLE12=Hey Señorita
TTITLE13=Early Bird
EXTD=
EXTT0=
EXTT1=
EXTT2=
EXTT3=
EXTT4=
EXTT5=
EXTT6=
EXTT7=
EXTT8=
EXTT9=
EXTT10=
EXTT11=
EXTT12=
EXTT13=
PLAYORDER=
